<svg xmlns="http://www.w3.org/2000/svg" viewBox="0 0 240 240" role="img" aria-labelledby="title desc">
  <title id="title">Sample learner avatar</title>
  <desc id="desc">A simple illustrated learner profile portrait.</desc>
  <defs>
    <linearGradient id="bg" x1="36" y1="28" x2="204" y2="218" gradientUnits="userSpaceOnUse">
      <stop stop-color="#D1FAE5"/>
      <stop offset="0.48" stop-color="#ECFEFF"/>
      <stop offset="1" stop-color="#A7F3D0"/>
    </linearGradient>
    <linearGradient id="shirt" x1="82" y1="150" x2="172" y2="224" gradientUnits="userSpaceOnUse">
      <stop stop-color="#065F46"/>
      <stop offset="1" stop-color="#10B981"/>
    </linearGradient>
  </defs>
  <rect width="240" height="240" rx="120" fill="url(#bg)"/>
  <circle cx="120" cy="94" r="46" fill="#F8D9C6"/>
  <path d="M71 92c0-34 20-58 52-58 30 0 49 21 49 54 0 13-4 26-10 35-8-6-18-11-32-11-26 0-44-10-59-20Z" fill="#0F766E"/>
  <path d="M79 96c17 8 34 12 52 12 12 0 23 3 32 9-7 15-22 25-42 25-27 0-44-18-44-44 0-.7 0-1.3.1-2Z" fill="#F8D9C6"/>
  <path d="M58 220c7-42 31-67 62-67s55 25 62 67H58Z" fill="url(#shirt)"/>
  <path d="M94 158c7 10 15 15 26 15s19-5 26-15" fill="none" stroke="#ECFDF5" stroke-width="10" stroke-linecap="round"/>
  <circle cx="101" cy="96" r="4" fill="#0F172A"/>
  <circle cx="139" cy="96" r="4" fill="#0F172A"/>
  <path d="M105 121c9 7 21 7 30 0" fill="none" stroke="#9A5B44" stroke-width="6" stroke-linecap="round"/>
</svg>
